<svg xmlns="http://www.w3.org/2000/svg" width="846" height="220" viewBox="0 0 846 220" role="img" aria-label="What I&#x27;m building"><title>What I&#x27;m building</title><style>@keyframes rise{from{opacity:0;transform:translateY(8px)}to{opacity:1;transform:none}}
@keyframes bar{from{transform:scaleY(0)}to{transform:scaleY(1)}}
.c{animation:rise .55s cubic-bezier(.2,.8,.2,1) both}
.b{animation:bar .5s cubic-bezier(.2,.8,.2,1) both;transform-box:fill-box;transform-origin:bottom}</style><rect width="846" height="220" fill="#07090A"/><text x="44" y="34" fill="#495D54" font-family="ui-monospace, SFMono-Regular, 'SF Mono', Menlo, Consolas, 'Liberation Mono', monospace" font-size="11" font-weight="600" letter-spacing="2.2">BUILDING</text><text x="802" y="34" fill="#495D54" font-family="ui-monospace, SFMono-Regular, 'SF Mono', Menlo, Consolas, 'Liberation Mono', monospace" font-size="11" letter-spacing="1.1" text-anchor="end">3 ACTIVE · ALL PRIVATE</text><g class="c" style="animation-delay:0.06s"><rect x="44.5" y="50.5" width="243.7" height="131" rx="10" fill="#0C1013" stroke="#1A2226"/><text x="62.0" y="90" fill="#E7F0EA" font-family="'Archivo', ui-sans-serif, system-ui, -apple-system, 'Helvetica Neue', Arial, sans-serif" font-size="21" font-weight="700" letter-spacing="-.42">Krevio</text><text x="270.7" y="89" fill="#00FF41" font-family="'Archivo', ui-sans-serif, system-ui, -apple-system, 'Helvetica Neue', Arial, sans-serif" font-size="15" font-weight="700" text-anchor="end">88%</text><text x="62.0" y="113" fill="#7E9188" font-family="ui-monospace, SFMono-Regular, 'SF Mono', Menlo, Consolas, 'Liberation Mono', monospace" font-size="11.5">Work OS at ClickUp parity</text><rect class="b" x="62.0" y="158.0" width="18.2" height="6" rx="2" fill="#0B7A2C" style="animation-delay:0.24s"/><rect class="b" x="83.2" y="153.0" width="18.2" height="11" rx="2" fill="#0B7A2C" style="animation-delay:0.28s"/><rect class="b" x="104.3" y="155.0" width="18.2" height="9" rx="2" fill="#0B7A2C" style="animation-delay:0.31s"/><rect class="b" x="125.5" y="147.0" width="18.2" height="17" rx="2" fill="#0B7A2C" style="animation-delay:0.34s"/><rect class="b" x="146.7" y="151.0" width="18.2" height="13" rx="2" fill="#12B24A" style="animation-delay:0.38s"/><rect class="b" x="167.8" y="143.0" width="18.2" height="21" rx="2" fill="#12B24A" style="animation-delay:0.42s"/><rect class="b" x="189.0" y="146.0" width="18.2" height="18" rx="2" fill="#12B24A" style="animation-delay:0.45s"/><rect class="b" x="210.2" y="139.0" width="18.2" height="25" rx="2" fill="#00FF41" style="animation-delay:0.48s"/><rect class="b" x="231.3" y="140.0" width="18.2" height="24" rx="2" fill="#00FF41" style="animation-delay:0.52s"/><rect class="b" x="252.5" y="134.0" width="18.2" height="30" rx="2" fill="#00FF41" style="animation-delay:0.56s"/></g><g class="c" style="animation-delay:0.15s"><rect x="301.2" y="50.5" width="243.7" height="131" rx="10" fill="#0C1013" stroke="#1A2226"/><text x="318.7" y="90" fill="#E7F0EA" font-family="'Archivo', ui-sans-serif, system-ui, -apple-system, 'Helvetica Neue', Arial, sans-serif" font-size="21" font-weight="700" letter-spacing="-.42">New Money</text><text x="527.3" y="89" fill="#00FF41" font-family="'Archivo', ui-sans-serif, system-ui, -apple-system, 'Helvetica Neue', Arial, sans-serif" font-size="15" font-weight="700" text-anchor="end">17/17</text><text x="318.7" y="113" fill="#7E9188" font-family="ui-monospace, SFMono-Regular, 'SF Mono', Menlo, Consolas, 'Liberation Mono', monospace" font-size="11.5">Quant terminal, strategy lab</text><rect class="b" x="318.7" y="155.0" width="18.2" height="9" rx="2" fill="#0B7A2C" style="animation-delay:0.33s"/><rect class="b" x="339.8" y="150.0" width="18.2" height="14" rx="2" fill="#0B7A2C" style="animation-delay:0.36s"/><rect class="b" x="361.0" y="152.0" width="18.2" height="12" rx="2" fill="#0B7A2C" style="animation-delay:0.40s"/><rect class="b" x="382.2" y="145.0" width="18.2" height="19" rx="2" fill="#0B7A2C" style="animation-delay:0.43s"/><rect class="b" x="403.3" y="148.0" width="18.2" height="16" rx="2" fill="#12B24A" style="animation-delay:0.47s"/><rect class="b" x="424.5" y="141.0" width="18.2" height="23" rx="2" fill="#12B24A" style="animation-delay:0.51s"/><rect class="b" x="445.7" y="144.0" width="18.2" height="20" rx="2" fill="#12B24A" style="animation-delay:0.54s"/><rect class="b" x="466.8" y="138.0" width="18.2" height="26" rx="2" fill="#00FF41" style="animation-delay:0.57s"/><rect class="b" x="488.0" y="142.0" width="18.2" height="22" rx="2" fill="#00FF41" style="animation-delay:0.61s"/><rect class="b" x="509.2" y="136.0" width="18.2" height="28" rx="2" fill="#00FF41" style="animation-delay:0.65s"/></g><g class="c" style="animation-delay:0.24s"><rect x="557.8" y="50.5" width="243.7" height="131" rx="10" fill="#0C1013" stroke="#1A2226"/><text x="575.3" y="90" fill="#E7F0EA" font-family="'Archivo', ui-sans-serif, system-ui, -apple-system, 'Helvetica Neue', Arial, sans-serif" font-size="21" font-weight="700" letter-spacing="-.42">Float</text><text x="784.0" y="89" fill="#00FF41" font-family="'Archivo', ui-sans-serif, system-ui, -apple-system, 'Helvetica Neue', Arial, sans-serif" font-size="15" font-weight="700" text-anchor="end">9/12</text><text x="575.3" y="113" fill="#7E9188" font-family="ui-monospace, SFMono-Regular, 'SF Mono', Menlo, Consolas, 'Liberation Mono', monospace" font-size="11.5">Finance OS, never moves money</text><rect class="b" x="575.3" y="150.0" width="18.2" height="14" rx="2" fill="#0B7A2C" style="animation-delay:0.42s"/><rect class="b" x="596.5" y="154.0" width="18.2" height="10" rx="2" fill="#0B7A2C" style="animation-delay:0.45s"/><rect class="b" x="617.7" y="146.0" width="18.2" height="18" rx="2" fill="#0B7A2C" style="animation-delay:0.49s"/><rect class="b" x="638.8" y="151.0" width="18.2" height="13" rx="2" fill="#0B7A2C" style="animation-delay:0.53s"/><rect class="b" x="660.0" y="143.0" width="18.2" height="21" rx="2" fill="#12B24A" style="animation-delay:0.56s"/><rect class="b" x="681.2" y="148.0" width="18.2" height="16" rx="2" fill="#12B24A" style="animation-delay:0.59s"/><rect class="b" x="702.3" y="140.0" width="18.2" height="24" rx="2" fill="#12B24A" style="animation-delay:0.63s"/><rect class="b" x="723.5" y="145.0" width="18.2" height="19" rx="2" fill="#00FF41" style="animation-delay:0.67s"/><rect class="b" x="744.7" y="137.0" width="18.2" height="27" rx="2" fill="#00FF41" style="animation-delay:0.70s"/><rect class="b" x="765.8" y="141.0" width="18.2" height="23" rx="2" fill="#00FF41" style="animation-delay:0.74s"/></g></svg>