<svg xmlns="http://www.w3.org/2000/svg" width="846" height="296" viewBox="0 0 846 296" role="img" aria-label="Momentum"><title>Momentum</title><style>@keyframes draw{from{stroke-dashoffset:2400}to{stroke-dashoffset:0}}
@keyframes rise{from{opacity:0;transform:translateY(6px)}to{opacity:1;transform:none}}
@keyframes fade{from{opacity:0}to{opacity:1}}
.ln{stroke-dasharray:2400;animation:draw 1.7s cubic-bezier(.35,.1,.25,1) both}
.ar{animation:fade .9s ease-out .7s both}
.r{animation:rise .5s cubic-bezier(.2,.8,.2,1) both}</style><rect width="846" height="296" fill="#07090A"/><text x="44" y="34" fill="#495D54" font-family="ui-monospace, SFMono-Regular, 'SF Mono', Menlo, Consolas, 'Liberation Mono', monospace" font-size="11" font-weight="600" letter-spacing="2.2">MOMENTUM</text><text x="802" y="34" fill="#495D54" font-family="ui-monospace, SFMono-Regular, 'SF Mono', Menlo, Consolas, 'Liberation Mono', monospace" font-size="11" letter-spacing="1.1" text-anchor="end">73 → 1,258 PER QUARTER</text><rect x="44.5" y="50.5" width="757" height="207" rx="10" fill="#0C1013" stroke="#1A2226"/><defs><linearGradient id="mo" x1="0" y1="0" x2="0" y2="1"><stop offset="0" stop-color="#00FF41" stop-opacity=".28"/><stop offset="1" stop-color="#00FF41" stop-opacity="0"/></linearGradient></defs><line x1="68" y1="162.6" x2="778" y2="162.6" stroke="#12181B"/><line x1="68" y1="128.3" x2="778" y2="128.3" stroke="#12181B"/><line x1="68" y1="198" x2="778" y2="198" stroke="#1A2226"/><path class="ar" d="M68.0 198.0 L139.0 191.2 L210.0 193.5 L281.0 193.1 L352.0 181.6 L423.0 175.4 L494.0 148.8 L565.0 154.0 L636.0 162.1 L707.0 184.6 L778.0 94.0 L778.0 198 L68.0 198 Z" fill="url(#mo)"/><path class="ln" d="M68.0 198.0 L139.0 191.2 L210.0 193.5 L281.0 193.1 L352.0 181.6 L423.0 175.4 L494.0 148.8 L565.0 154.0 L636.0 162.1 L707.0 184.6 L778.0 94.0" fill="none" stroke="#00FF41" stroke-width="1.8" stroke-linejoin="round" stroke-linecap="round"/><circle class="r" cx="778.0" cy="94.0" r="10" fill="#00FF41" fill-opacity=".18" style="animation-delay:1.7s"/><circle class="r" cx="778.0" cy="94.0" r="4" fill="#D8FFE4" style="animation-delay:1.7s"/><line x1="45" y1="214" x2="801" y2="214" stroke="#1A2226"/><text class="r" x="68" y="236" fill="#7E9188" font-family="ui-monospace, SFMono-Regular, 'SF Mono', Menlo, Consolas, 'Liberation Mono', monospace" font-size="12" style="animation-delay:1.8s">first quarter <tspan fill="#E7F0EA">73</tspan>   ·   last quarter <tspan fill="#00FF41">1,258</tspan></text><text class="r" x="778" y="236" fill="#495D54" font-family="ui-monospace, SFMono-Regular, 'SF Mono', Menlo, Consolas, 'Liberation Mono', monospace" font-size="11" text-anchor="end" style="animation-delay:1.86s">17.2× over the year</text></svg>